<?xml version="1.0" standalone="no"?>
<!DOCTYPE svg PUBLIC "-//W3C//DTD SVG 20010904//EN"
 "http://www.w3.org/TR/2001/REC-SVG-20010904/DTD/svg10.dtd">
<svg version="1.0" xmlns="http://www.w3.org/2000/svg"
 width="1024.000000pt" height="1024.000000pt" viewBox="0 0 1024.000000 1024.000000"
 preserveAspectRatio="xMidYMid meet">

<g transform="translate(0.000000,1024.000000) scale(0.100000,-0.100000)"
fill="#000000" stroke="none">
<path d="M0 5120 l0 -5120 5120 0 5120 0 0 5120 0 5120 -5120 0 -5120 0 0
-5120z m7047 4170 c-31 -33 -70 -88 -87 -122 -17 -35 -28 -52 -24 -38 11 43
56 113 107 168 28 28 52 52 55 52 2 0 -21 -27 -51 -60z m-123 -224 c-3 -15 -8
-25 -11 -23 -2 3 -1 17 3 31 3 15 8 25 11 23 2 -3 1 -17 -3 -31z m-2888 -109
c-78 -130 -70 -121 -94 -108 -19 10 -27 5 -73 -54 -29 -35 -57 -62 -62 -58 -6
3 -7 1 -3 -6 9 -13 -131 -194 -144 -186 -5 3 -12 0 -16 -6 -4 -8 -3 -9 4 -5
23 14 11 -6 -44 -74 -31 -39 -60 -68 -64 -65 -4 3 -14 -3 -21 -13 -13 -15 -12
-16 4 -3 9 7 17 9 17 4 0 -13 -35 -44 -42 -37 -3 3 -5 -2 -5 -12 2 -19 -36
-33 -223 -84 l-115 -31 -192 -290 c-105 -159 -194 -285 -197 -281 -3 5 70 123
161 263 91 140 177 272 192 295 26 40 28 41 187 89 l161 47 183 229 c100 126
186 227 190 224 5 -3 12 0 16 6 4 8 3 9 -4 5 -17 -11 -15 9 3 24 18 15 20 37
3 42 -7 3 28 36 77 74 49 38 103 81 120 96 16 15 32 22 33 17 2 -5 -21 -51
-52 -102z m3621 61 c-3 -8 -6 -5 -6 6 -1 11 2 17 5 13 3 -3 4 -12 1 -19z
m-750 -20 c-3 -7 -5 -2 -5 12 0 14 2 19 5 13 2 -7 2 -19 0 -25z m750 -350 c-1
-68 -3 -15 -3 117 0 132 2 187 3 123 2 -64 2 -172 0 -240z m-760 165 c-2 -32
-3 -6 -3 57 0 63 1 89 3 58 2 -32 2 -84 0 -115z m21 -168 c-1 -31 -16 35 -16
70 0 25 2 24 9 -10 4 -22 8 -49 7 -60z m9 -57 c-3 -7 -5 -2 -5 12 0 14 2 19 5
13 2 -7 2 -19 0 -25z m27 -88 c4 -24 3 -29 -3 -15 -4 11 -11 36 -15 55 -4 24
-3 29 3 15 4 -11 11 -36 15 -55z m-2167 -2 c-2 -7 -35 -138 -72 -291 -63 -260
-69 -279 -96 -298 -20 -14 -29 -16 -29 -7 0 7 30 139 66 294 61 258 69 282 93
297 31 20 45 21 38 5z m2202 -97 c11 -30 19 -57 17 -59 -4 -3 -46 102 -46 115
0 14 9 -4 29 -56z m-1979 -23 l0 -73 -92 -92 c-51 -51 -96 -93 -100 -93 -5 0
-8 18 -8 41 0 37 7 49 70 117 l70 77 -60 3 -60 3 0 44 0 45 90 0 90 0 0 -72z
m2140 -284 c77 -114 237 -275 343 -345 99 -65 210 -114 301 -134 36 -8 50 -14
33 -14 -72 -2 -249 77 -377 167 -141 101 -322 317 -411 493 -45 89 -34 84 15
-7 24 -44 67 -116 96 -160z m-2590 177 c0 -33 -10 -53 -59 -118 l-59 -78 60
-3 59 -3 -3 -42 -3 -42 -92 -3 -93 -3 0 49 c0 37 7 59 28 89 48 70 147 193
155 193 4 0 7 -18 7 -39z m-974 -907 c-4 -11 -127 -84 -140 -84 -3 0 -6 193
-6 430 l0 429 73 40 72 40 3 -422 c1 -232 0 -427 -2 -433z m-1043 756 c-10 -9
-1104 -628 -1200 -679 -20 -10 -23 -9 -23 7 0 13 58 51 223 144 122 70 398
226 612 348 303 171 391 217 393 204 2 -9 0 -20 -5 -24z m-1115 -148 c4 -24
-41 -76 -61 -69 -23 7 -19 46 8 73 29 29 49 28 53 -4z m1120 -49 c-4 -21 -886
-515 -906 -508 -7 3 -11 1 -7 -4 7 -12 -143 -94 -157 -85 -6 4 -8 3 -5 -3 3
-5 -30 -29 -75 -53 -46 -24 -79 -37 -76 -29 6 19 160 109 176 104 7 -3 11 -1
8 4 -8 12 92 64 106 55 7 -4 8 -3 4 4 -8 14 70 56 86 46 6 -4 8 -3 5 3 -4 7
154 101 391 233 218 123 406 229 417 236 28 18 37 17 33 -3z m-1242 -7 c12
-32 -60 -117 -86 -101 -18 11 -10 53 16 84 27 33 61 41 70 17z m-139 -86 c5
-25 -35 -80 -57 -80 -32 0 -30 42 3 78 23 25 50 26 54 2z m7063 -83 c0 -2 -15
-16 -32 -33 l-33 -29 29 33 c28 30 36 37 36 29z m-5680 -26 c0 -15 -110 -79
-492 -289 -565 -309 -728 -395 -735 -388 -10 9 9 27 24 22 8 -3 11 -1 8 4 -7
12 65 49 84 42 8 -2 11 0 7 6 -3 5 145 93 347 205 613 340 752 417 755 417 1
0 2 -9 2 -19z m3147 -16 c58 -15 179 -18 308 -6 78 7 158 -2 193 -21 37 -19
58 -74 76 -193 22 -147 28 -169 52 -173 16 -2 24 8 38 48 22 61 56 90 106 90
73 0 116 -61 108 -155 -4 -42 -12 -64 -35 -93 -46 -58 -92 -85 -133 -79 l-36
5 4 -167 c2 -91 8 -170 13 -176 26 -27 -9 -116 -69 -172 -49 -46 -121 -82
-188 -94 -67 -12 -109 -1 -148 40 -28 29 -28 30 -21 125 l7 96 -43 2 -44 1 43
4 c38 4 42 7 42 31 l0 27 -88 0 c-81 0 -93 3 -138 30 -62 39 -118 119 -147
210 -19 60 -22 91 -21 225 1 185 33 410 58 410 3 0 31 -7 63 -15z m2463 -29
c0 -2 -7 -7 -16 -10 -8 -3 -12 -2 -9 4 6 10 25 14 25 6z m-80 -41 c-14 -8 -29
-14 -35 -14 -5 0 1 6 15 14 14 8 30 14 35 14 6 0 -1 -6 -15 -14z m-68 -25
c-12 -5 -53 -12 -90 -14 l-67 -5 75 13 c92 16 112 17 82 6z m686 -97 c-16 -2
-40 -2 -55 0 -16 2 -3 4 27 4 30 0 43 -2 28 -4z m-128 -19 c-25 -7 -49 -13
-55 -13 -18 1 59 27 80 28 11 0 0 -7 -25 -15z m203 9 c-7 -2 -21 -2 -30 0 -10
3 -4 5 12 5 17 0 24 -2 18 -5z m44 -9 c-3 -3 -12 -4 -19 -1 -8 3 -5 6 6 6 11
1 17 -2 13 -5z m86 -31 c15 -7 27 -15 27 -18 0 -4 -92 35 -100 43 -8 8 43 -9
73 -25z m-5913 -217 l0 -224 -67 -39 c-38 -21 -71 -39 -75 -41 -5 -2 -8 99 -8
225 l0 229 68 37 c37 20 70 37 75 37 4 0 7 -101 7 -224z m6086 86 c115 -114
202 -260 267 -445 30 -88 32 -99 32 -242 -1 -99 -5 -158 -13 -175 l-13 -25 7
25 c3 14 8 79 11 146 6 139 -11 227 -71 365 -65 150 -116 229 -216 330 -52 52
-106 103 -120 113 -21 14 -20 14 9 -1 18 -10 66 -51 107 -91z m-358 -94 c7 -7
12 -36 12 -65 0 -29 4 -53 9 -53 20 0 94 -85 117 -133 38 -82 31 -107 -31
-107 -17 0 -25 7 -30 28 -20 92 -133 168 -175 117 -24 -29 -1 -70 96 -166 111
-110 146 -161 170 -245 33 -122 -8 -214 -95 -214 l-41 0 0 -40 c0 -22 -3 -40
-6 -40 -3 0 -19 9 -35 21 -24 17 -29 28 -29 60 0 21 -4 39 -9 39 -4 0 -31 23
-59 51 -70 69 -138 209 -103 209 5 0 22 3 39 6 30 6 32 4 55 -47 26 -58 91
-125 132 -135 49 -12 70 36 45 102 -6 15 -57 73 -114 128 -113 111 -147 166
-154 253 -8 90 36 153 104 153 33 0 34 1 34 39 0 22 5 42 13 44 22 9 43 7 55
-5z m-6213 -175 c-4 -60 -11 -126 -16 -148 -12 -48 -49 -145 -56 -145 -5 0
-91 51 -131 78 -11 7 -2 33 42 120 31 61 58 129 62 151 6 37 9 40 43 44 20 2
42 4 49 5 11 2 12 -20 7 -105z m-279 -222 c14 -6 62 -34 105 -63 l80 -51 -53
-54 c-160 -164 -317 -123 -318 84 0 109 38 199 124 291 l31 33 3 -114 c3 -111
3 -114 28 -126z m3611 -68 c-20 -2 -52 -2 -70 0 -17 2 0 4 38 4 39 0 53 -2 32
-4z m-4361 -252 c-6 -10 -66 -33 -66 -26 0 3 15 11 33 19 40 18 39 18 33 7z
m-90 -46 c-11 -8 -25 -15 -30 -15 -6 1 0 7 14 15 32 19 40 18 16 0z m272 -102
l-3 -117 -57 -32 -58 -33 1 122 0 122 52 27 c29 15 56 27 60 27 4 1 6 -52 5
-116z m-301 45 c-3 -8 -6 -5 -6 6 -1 11 2 17 5 13 3 -3 4 -12 1 -19z m7959
-63 c-37 -62 -77 -106 -118 -128 -30 -16 -31 -16 -8 0 44 31 94 87 120 135 13
26 26 45 28 43 3 -2 -8 -25 -22 -50z m-7849 -27 c-3 -8 -6 -5 -6 6 -1 11 2 17
5 13 3 -3 4 -12 1 -19z m13 -163 c0 -2 -18 -14 -40 -25 -22 -11 -40 -18 -40
-15 0 2 17 13 38 24 42 23 42 23 42 16z m2410 -198 c518 -302 603 -350 614
-349 6 0 56 13 111 27 78 20 154 53 341 148 l241 121 33 63 c19 35 35 63 37
63 2 0 39 -28 82 -63 63 -49 141 -97 219 -133 7 -4 -81 -170 -102 -192 -31
-35 -100 -67 -264 -124 -81 -27 -152 -53 -158 -57 -7 -3 148 -97 343 -208
l354 -203 137 0 c125 0 140 2 177 24 237 137 562 329 568 335 4 4 4 42 -1 84
l-8 77 50 -7 c28 -5 96 -8 151 -7 97 1 112 5 218 49 15 7 17 -1 17 -91 -1
-209 -35 -319 -116 -375 -58 -40 -168 -90 -402 -185 -272 -110 -370 -153 -429
-186 -46 -26 -68 -31 -156 -37 l-102 -6 -140 -81 c-77 -44 -246 -142 -376
-217 -130 -75 -246 -137 -258 -137 -12 0 -181 91 -374 202 -680 389 -922 530
-935 542 -7 7 -38 197 -77 471 -36 253 -67 474 -70 492 -7 38 21 73 58 73 13
0 110 -51 217 -113z m1747 -554 c-3 -10 -5 -2 -5 17 0 19 2 27 5 18 2 -10 2
-26 0 -35z m0 -135 c-3 -7 -5 -2 -5 12 0 14 2 19 5 13 2 -7 2 -19 0 -25z
m1356 -505 c40 -17 87 -65 87 -91 0 -9 7 -26 15 -36 20 -26 19 -81 -2 -116
-54 -91 -307 -133 -423 -70 -29 16 -51 38 -63 61 -17 35 -17 38 7 113 28 87
37 100 80 124 79 41 214 48 299 15z m1067 -100 c0 -5 15 -8 34 -9 42 -1 171
-62 252 -120 105 -75 217 -195 263 -281 22 -42 3 -23 -25 25 -35 61 -162 192
-240 248 -95 68 -287 151 -273 118 2 -5 23 -45 45 -89 23 -44 44 -91 48 -105
4 -14 -13 17 -38 68 -25 51 -55 106 -66 122 -12 17 -17 30 -11 30 6 0 11 -3
11 -7z m-1901 -354 c163 -89 302 -167 310 -174 15 -15 6 -21 -234 -165 -77
-46 -189 -114 -250 -150 -173 -105 -252 -150 -267 -150 -13 0 -453 241 -538
295 -56 36 -45 42 16 9 27 -15 45 -22 39 -17 -5 6 -36 24 -67 41 l-58 30 368
221 c202 121 371 220 376 221 5 0 142 -72 305 -161z m908 74 c-3 -10 -5 -2 -5
17 0 19 2 27 5 18 2 -10 2 -26 0 -35z m1139 -70 c2 -7 30 -26 64 -43 33 -17
60 -33 60 -35 0 -9 -115 52 -127 67 -6 7 -13 31 -16 53 l-6 40 11 -35 c5 -19
12 -40 14 -47z m204 47 c6 -11 8 -20 6 -20 -3 0 -10 9 -16 20 -6 11 -8 20 -6
20 3 0 10 -9 16 -20z m-5 -50 c9 -16 13 -30 11 -30 -3 0 -12 14 -21 30 -9 17
-13 30 -11 30 3 0 12 -13 21 -30z m35 0 c6 -11 8 -20 6 -20 -3 0 -10 9 -16 20
-6 11 -8 20 -6 20 3 0 10 -9 16 -20z m-223 -122 c-2 -13 -4 -5 -4 17 -1 22 1
32 4 23 2 -10 2 -28 0 -40z m271 27 c-3 -3 -9 2 -12 12 -6 14 -5 15 5 6 7 -7
10 -15 7 -18z m-215 8 c-7 -2 -21 -2 -30 0 -10 3 -4 5 12 5 17 0 24 -2 18 -5z
m57 -13 c18 -12 2 -12 -25 0 -13 6 -15 9 -5 9 8 0 22 -4 30 -9z m335 -76 c14
-38 24 -78 24 -89 0 -11 -8 7 -18 40 -10 33 -25 78 -35 100 -9 22 -12 35 -6
29 6 -6 22 -42 35 -80z m-438 -21 c-3 -10 -5 -2 -5 17 0 19 2 27 5 18 2 -10 2
-26 0 -35z m273 2 c0 -5 -5 -3 -10 5 -5 8 -10 20 -10 25 0 6 5 3 10 -5 5 -8
10 -19 10 -25z m40 -10 c0 -5 -5 -3 -10 5 -5 8 -10 20 -10 25 0 6 5 3 10 -5 5
-8 10 -19 10 -25z m-238 -180 c56 -32 59 -40 5 -14 -51 25 -60 43 -71 139 -4
28 1 16 12 -30 16 -68 20 -76 54 -95z m228 120 c0 -5 -5 -3 -10 5 -5 8 -10 20
-10 25 0 6 5 3 10 -5 5 -8 10 -19 10 -25z m-2102 -7 c18 -18 15 -69 -5 -84
-26 -19 -31 -17 -35 14 -2 21 -8 27 -25 25 -33 -4 -28 12 10 35 39 25 40 25
55 10z m2152 -33 c0 -5 -5 -3 -10 5 -5 8 -10 20 -10 25 0 6 5 3 10 -5 5 -8 10
-19 10 -25z m117 -37 c-2 -13 -4 -5 -4 17 -1 22 1 32 4 23 2 -10 2 -28 0 -40z
m-2356 12 c30 -17 25 -62 -10 -83 -38 -22 -41 -22 -41 8 0 18 -5 25 -18 25
-35 0 -33 14 5 37 44 27 39 26 64 13z m-99 -67 c26 -23 22 -49 -11 -72 -38
-27 -51 -26 -51 4 0 18 -5 25 -20 25 -29 0 -24 15 13 38 40 25 46 26 69 5z
m-795 -133 c136 -77 255 -140 263 -140 8 1 55 25 105 55 83 51 90 53 107 38
31 -28 23 -60 -22 -83 -49 -25 -50 -25 -50 5 0 20 -5 25 -27 25 -21 0 -24 -3
-15 -12 7 -7 12 -24 12 -39 0 -21 -9 -32 -37 -49 -25 -15 -38 -18 -43 -10 -4
6 -128 78 -276 159 -215 117 -270 151 -272 169 -2 12 -1 22 2 22 3 0 117 -63
253 -140z m3130 98 c-3 -8 -6 -5 -6 6 -1 11 2 17 5 13 3 -3 4 -12 1 -19z
m-4765 -123 c-3 -132 -3 -135 22 -160 33 -33 79 -33 111 0 23 22 25 31 25 124
l0 101 58 -33 c32 -17 69 -39 82 -48 l24 -16 -12 -148 c-7 -93 -8 -154 -2
-165 30 -56 287 -73 342 -24 10 10 26 43 36 75 l17 58 160 -90 c88 -50 161
-92 163 -93 1 -2 -10 -110 -24 -240 l-27 -237 22 -23 c36 -38 122 -60 233 -61
129 0 129 0 170 183 19 81 38 141 44 140 5 -2 116 -63 246 -137 l235 -133 6
-127 c4 -69 7 -504 7 -967 0 -835 0 -841 20 -859 27 -24 83 -24 110 0 20 18
20 24 20 909 0 490 3 928 6 973 l7 82 222 125 222 125 59 -31 c32 -18 103 -51
158 -74 l100 -43 0 -50 c1 -41 6 -55 30 -80 78 -81 206 -51 223 53 7 46 -20
136 -50 164 -12 11 -80 46 -152 77 -71 32 -143 64 -159 72 l-28 15 113 64 c63
35 118 64 123 64 8 0 502 -286 593 -343 l40 -25 -5 -524 -4 -523 22 -27 c28
-36 83 -38 117 -6 22 21 23 26 23 210 0 103 3 188 6 188 12 0 390 -214 412
-233 49 -45 30 -65 -168 -179 -296 -171 -1002 -581 -1542 -895 -307 -178 -573
-330 -592 -338 -20 -8 -49 -15 -66 -15 -42 0 -200 84 -715 380 -886 510 -1376
791 -2130 1222 -423 242 -794 455 -822 474 -55 36 -75 72 -53 99 9 11 201 125
239 143 4 1 6 -34 6 -78 0 -69 3 -82 22 -102 28 -28 84 -29 113 -3 18 16 20
30 20 149 l0 131 272 155 c150 85 489 280 753 432 264 153 485 278 490 278 6
0 9 -49 7 -135z m4578 125 c8 -5 11 -10 5 -10 -5 0 -17 5 -25 10 -8 5 -10 10
-5 10 6 0 17 -5 25 -10z m227 -22 c-3 -8 -6 -5 -6 6 -1 11 2 17 5 13 3 -3 4
-12 1 -19z m-2479 0 c7 -7 12 -24 12 -39 0 -20 -9 -32 -34 -47 l-35 -21 -3 32
c-2 20 -9 33 -18 33 -8 1 -19 2 -25 3 -11 2 64 49 81 50 5 1 15 -4 22 -11z
m2152 -18 c0 -16 -2 -30 -4 -30 -2 0 -6 14 -8 30 -3 17 -1 30 4 30 4 0 8 -13
8 -30z m68 13 c-10 -2 -28 -2 -40 0 -13 2 -5 4 17 4 22 1 32 -1 23 -4z m229
-15 c-3 -8 -6 -5 -6 6 -1 11 2 17 5 13 3 -3 4 -12 1 -19z m40 -30 c-3 -7 -5
-2 -5 12 0 14 2 19 5 13 2 -7 2 -19 0 -25z m-30 -10 c-3 -8 -6 -5 -6 6 -1 11
2 17 5 13 3 -3 4 -12 1 -19z m-2559 0 c25 -25 14 -62 -27 -85 l-40 -23 -3 27
c-2 19 -10 29 -27 33 -24 5 -23 7 20 32 50 31 60 33 77 16z m2259 -30 c-3 -7
-5 -2 -5 12 0 14 2 19 5 13 2 -7 2 -19 0 -25z m340 -20 c-3 -7 -5 -2 -5 12 0
14 2 19 5 13 2 -7 2 -19 0 -25z m-30 -25 c-3 -10 -5 -2 -5 17 0 19 2 27 5 18
2 -10 2 -26 0 -35z m-926 -929 c123 -70 153 -94 175 -136 28 -54 13 -107 -48
-165 -30 -28 -168 -121 -225 -152 l-23 -12 0 266 c0 146 2 265 4 265 2 0 55
-30 117 -66z m1391 -73 c56 -50 98 -129 98 -185 0 -54 -48 -137 -103 -177 -59
-44 -169 -93 -257 -115 -108 -27 -306 -25 -415 5 -113 30 -196 72 -256 128
-119 111 -118 204 4 327 38 39 72 65 76 60 5 -5 14 -31 20 -58 30 -123 106
-223 209 -273 51 -25 67 -28 162 -28 93 0 112 3 161 26 106 50 168 135 206
281 19 76 19 76 95 9z"/>
<path d="M3709 8623 c-13 -16 -12 -17 4 -4 9 7 17 15 17 17 0 8 -8 3 -21 -13z"/>
<path d="M2440 7871 c-47 -26 -188 -105 -315 -176 -126 -70 -234 -132 -240
-137 -15 -16 27 7 339 181 159 89 292 161 297 161 4 0 11 5 14 10 11 18 -9 10
-95 -39z"/>
<path d="M1838 7534 c-38 -20 -36 -28 2 -9 17 9 30 18 30 20 0 7 -1 6 -32 -11z"/>
<path d="M1758 7489 c-21 -11 -38 -22 -38 -24 0 -3 18 4 40 15 22 11 40 23 40
25 0 7 0 7 -42 -16z"/>
<path d="M1530 7360 c-9 -6 -10 -10 -3 -10 6 0 15 5 18 10 8 12 4 12 -15 0z"/>
<path d="M2380 7636 c-80 -45 -186 -104 -235 -131 -50 -26 -126 -68 -170 -93
-44 -24 -105 -58 -135 -74 -216 -118 -290 -160 -290 -163 0 -6 47 16 105 49
97 54 252 139 395 216 273 147 455 249 475 264 47 36 -10 9 -145 -68z"/>
<path d="M1490 7145 c-25 -13 -41 -24 -37 -25 11 0 87 39 87 45 0 7 0 7 -50
-20z"/>
<path d="M5683 7570 c-38 -15 -26 -25 32 -26 59 0 71 10 29 26 -30 12 -32 12
-61 0z"/>
<path d="M6013 7563 c-7 -2 -13 -10 -13 -17 0 -8 20 -12 65 -11 36 0 65 3 65
7 0 21 -81 36 -117 21z"/>
<path d="M5692 7458 c-7 -7 -12 -29 -12 -49 0 -73 62 -78 68 -5 5 54 -26 84
-56 54z"/>
<path d="M6012 7438 c-17 -17 -15 -74 4 -92 18 -19 20 -19 45 -6 14 8 19 21
19 48 0 40 -14 62 -40 62 -9 0 -21 -5 -28 -12z"/>
<path d="M5984 7095 c-12 -17 -34 -29 -64 -34 -43 -9 -44 -9 -10 -10 38 -1 74
18 90 50 15 26 8 24 -16 -6z"/>
<path d="M6435 4130 c-3 -6 1 -7 9 -4 18 7 21 14 7 14 -6 0 -13 -4 -16 -10z"/>
<path d="M6394 4104 c-18 -14 -18 -15 4 -4 12 6 22 13 22 15 0 8 -5 6 -26 -11z"/>
<path d="M5255 3953 c6 -6 37 -26 70 -44 33 -18 56 -28 50 -22 -5 5 -37 25
-70 43 -33 18 -55 28 -50 23z"/>
<path d="M6034 3884 c-18 -14 -18 -15 4 -4 12 6 22 13 22 15 0 8 -5 6 -26 -11z"/>
<path d="M5390 3876 c0 -3 14 -12 30 -21 17 -9 30 -13 30 -11 0 3 -13 12 -30
21 -16 9 -30 13 -30 11z"/>
<path d="M5984 3854 c-18 -14 -18 -15 4 -4 12 6 22 13 22 15 0 8 -5 6 -26 -11z"/>
<path d="M5460 3835 c0 -2 18 -14 40 -25 22 -11 40 -18 40 -15 0 2 -18 14 -40
25 -22 11 -40 18 -40 15z"/>
<path d="M5550 3786 c0 -3 14 -12 30 -21 17 -9 30 -13 30 -11 0 3 -13 12 -30
21 -16 9 -30 13 -30 11z"/>
<path d="M5620 3746 c0 -3 14 -12 30 -21 17 -9 30 -13 30 -11 0 3 -13 12 -30
21 -16 9 -30 13 -30 11z"/>
<path d="M5730 3705 c-14 -8 -20 -14 -14 -15 5 0 19 7 30 15 24 18 16 19 -16
0z"/>
<path d="M4088 3279 c-10 -5 -18 -16 -18 -23 0 -43 -126 -155 -310 -274 -63
-41 -145 -94 -181 -118 -86 -57 -112 -117 -73 -172 33 -47 90 -66 214 -70 146
-5 205 13 342 104 111 74 139 87 223 104 74 15 127 41 154 76 25 31 28 118 10
237 -13 85 -26 108 -46 81 -7 -10 -13 -26 -13 -36 0 -26 -36 -58 -64 -58 -18
0 -26 7 -31 28 -11 45 -33 71 -83 96 -59 30 -102 39 -124 25z"/>
<path d="M4763 2708 c-5 -7 -17 -33 -27 -56 -42 -110 -138 -228 -281 -350 -55
-47 -110 -101 -122 -121 -49 -78 -19 -146 85 -193 147 -67 313 -39 417 71 16
17 54 69 85 114 38 57 66 87 90 98 144 67 150 73 150 158 0 80 -33 241 -50
241 -5 0 -18 -20 -29 -45 -11 -25 -26 -45 -33 -45 -7 0 -23 -3 -34 -6 -17 -5
-23 0 -28 23 -12 48 -35 74 -89 99 -56 26 -119 31 -134 12z"/>
</g>
</svg>
